<svg xmlns="http://www.w3.org/2000/svg" viewBox="0 0 900 230">
<defs><linearGradient id="g" x1="0" y1="0" x2="1" y2="1"><stop stop-color="#8b4b16"/><stop offset=".45" stop-color="#d49a35"/><stop offset="1" stop-color="#6b3210"/></linearGradient></defs>
<rect width="900" height="230" rx="28" fill="#fffaf5"/>
<g transform="translate(35 28)">
<path d="M58 45 Q78 8 98 45" fill="none" stroke="#c8922e" stroke-width="8"/><path d="M45 44 L70 22 L95 44 L120 22 L145 44 L132 67 L58 67Z" fill="url(#g)" stroke="#6b3210" stroke-width="3"/>
<text x="12" y="137" font-family="Georgia,serif" font-size="115" font-weight="700" fill="#1d1715">I</text><path d="M5 102 C55 72 90 95 122 75 C150 57 170 52 193 58" fill="none" stroke="#b87922" stroke-width="16" stroke-linecap="round"/><path d="M78 55 C95 35 112 48 112 61 C112 78 78 92 78 92 C78 92 44 78 44 61 C44 48 61 35 78 55Z" fill="#d7192f" stroke="#9b101e" stroke-width="3"/>
</g>
<text x="225" y="125" font-family="Georgia,serif" font-size="92" font-weight="700" font-style="italic" fill="#c7192e">Ishu</text>
<text x="230" y="187" font-family="Arial,sans-serif" font-size="48" font-weight="800" letter-spacing="5" fill="#191414">PHOTO FRAMES</text>
<path d="M228 203 H820" stroke="#c8922e" stroke-width="4"/><path d="M515 196 C528 181 548 193 548 207 C548 223 515 235 515 235 C515 235 482 223 482 207 C482 193 502 181 515 196Z" fill="#d7192f"/>
</svg>